<?xml version="1.0" encoding="utf-8"?>
<svg width="241.89996px" height="357.45886px" viewBox="0 0 241.89996 357.45886" version="1.1" xmlns:xlink="http://www.w3.org/1999/xlink" xmlns="http://www.w3.org/2000/svg">
  <path d="M13.1438 38.6442L39.9104 8.91698Q40.1075 8.69808 40.3151 8.48912Q40.5227 8.28015 40.7403 8.08163Q40.9579 7.8831 41.185 7.69549Q41.4121 7.50788 41.6481 7.33164Q41.8841 7.1554 42.1285 6.99095Q42.3729 6.8265 42.625 6.67424Q42.8772 6.52198 43.1365 6.38228Q43.3958 6.24258 43.6617 6.11577Q43.9276 5.98896 44.1993 5.87534Q44.4711 5.76173 44.7481 5.66159Q45.0251 5.56145 45.3067 5.47502Q45.5883 5.38859 45.8738 5.31609Q46.1593 5.24358 46.448 5.18517Q46.7367 5.12676 47.028 5.08259Q47.3192 5.03841 47.6122 5.00858Q47.9053 4.97875 48.1994 4.96334Q48.4936 4.94792 48.7881 4.94696Q49.0827 4.94599 49.3769 4.95948Q49.6712 4.97298 49.9644 5.00089Q50.2577 5.0288 50.5492 5.07107Q50.8407 5.11333 51.1298 5.16985Q51.4189 5.22638 51.7048 5.29701Q51.9908 5.36765 52.2729 5.45223Q52.5551 5.53682 52.8328 5.63514Q53.1104 5.73347 53.3829 5.8453Q53.6554 5.95713 53.9221 6.0822Q54.1888 6.20727 54.449 6.34527Q54.7093 6.48328 54.9624 6.63388Q55.2156 6.78449 55.461 6.94733Q55.7065 7.11018 55.9436 7.28487Q56.1808 7.45957 56.4091 7.64569Q56.6374 7.83181 56.8563 8.02891L232.983 166.614Q233.202 166.811 233.411 167.019Q233.62 167.227 233.818 167.444Q234.017 167.662 234.205 167.889Q234.392 168.116 234.568 168.352Q234.745 168.588 234.909 168.832Q235.073 169.077 235.226 169.329Q235.378 169.581 235.518 169.84Q235.657 170.1 235.784 170.366Q235.911 170.631 236.025 170.903Q236.138 171.175 236.238 171.452Q236.339 171.729 236.425 172.011Q236.511 172.292 236.584 172.578Q236.656 172.863 236.715 173.152Q236.773 173.441 236.817 173.732Q236.862 174.023 236.891 174.316Q236.921 174.609 236.937 174.903Q236.952 175.197 236.953 175.492Q236.954 175.787 236.941 176.081Q236.927 176.375 236.899 176.668Q236.871 176.962 236.829 177.253Q236.787 177.545 236.73 177.834Q236.674 178.123 236.603 178.409Q236.532 178.695 236.448 178.977Q236.363 179.259 236.265 179.537Q236.166 179.814 236.055 180.087Q235.943 180.359 235.818 180.626Q235.693 180.893 235.555 181.153Q235.417 181.413 235.266 181.666Q235.115 181.919 234.953 182.165Q234.79 182.41 234.615 182.648Q234.44 182.885 234.254 183.113Q234.068 183.341 233.871 183.56L207.105 213.287Q206.907 213.506 206.7 213.715Q206.492 213.924 206.275 214.123Q206.057 214.321 205.83 214.509Q205.603 214.697 205.367 214.873Q205.131 215.049 204.886 215.213Q204.642 215.378 204.39 215.53Q204.138 215.682 203.878 215.822Q203.619 215.962 203.353 216.089Q203.087 216.215 202.816 216.329Q202.544 216.443 202.267 216.543Q201.99 216.643 201.708 216.729Q201.427 216.816 201.141 216.888Q200.856 216.961 200.567 217.019Q200.278 217.078 199.987 217.122Q199.696 217.166 199.403 217.196Q199.11 217.226 198.815 217.241Q198.521 217.257 198.227 217.257Q197.932 217.258 197.638 217.245Q197.344 217.231 197.05 217.204Q196.757 217.176 196.466 217.133Q196.174 217.091 195.885 217.035Q195.596 216.978 195.31 216.907Q195.024 216.837 194.742 216.752Q194.46 216.668 194.182 216.569Q193.904 216.471 193.632 216.359Q193.359 216.247 193.093 216.122Q192.826 215.997 192.566 215.859Q192.306 215.721 192.052 215.571Q191.799 215.42 191.554 215.257Q191.308 215.094 191.071 214.92Q190.834 214.745 190.606 214.559Q190.378 214.373 190.159 214.176L14.0319 55.5901Q13.813 55.393 13.6041 55.1854Q13.3951 54.9778 13.1966 54.7602Q12.998 54.5426 12.8104 54.3155Q12.6228 54.0885 12.4466 53.8524Q12.2703 53.6164 12.1059 53.372Q11.9414 53.1277 11.7892 52.8755Q11.6369 52.6234 11.4972 52.364Q11.3575 52.1047 11.2307 51.8388Q11.1039 51.573 10.9903 51.3012Q10.8767 51.0294 10.7765 50.7524Q10.6764 50.4754 10.59 50.1938Q10.5035 49.9122 10.431 49.6267Q10.3585 49.3412 10.3001 49.0525Q10.2417 48.7638 10.1975 48.4726Q10.1533 48.1814 10.1235 47.8883Q10.0937 47.5953 10.0783 47.3011Q10.0628 47.007 10.0619 46.7124Q10.0609 46.4179 10.0744 46.1236Q10.0879 45.8293 10.1158 45.5361Q10.1437 45.2429 10.186 44.9514Q10.2283 44.6599 10.2848 44.3708Q10.3413 44.0817 10.4119 43.7957Q10.4826 43.5098 10.5672 43.2276Q10.6517 42.9455 10.7501 42.6678Q10.8484 42.3901 10.9602 42.1176Q11.0721 41.8451 11.1971 41.5784Q11.3222 41.3117 11.4602 41.0515Q11.5982 40.7913 11.7488 40.5381Q11.8994 40.285 12.0623 40.0395Q12.2251 39.7941 12.3998 39.5569Q12.5745 39.3198 12.7606 39.0915Q12.9467 38.8631 13.1438 38.6442Z" id="Rectangle-2" fill="current" fill-rule="evenodd" stroke="current" />
  <path d="M38.8068 348.538L8.02888 314.356Q7.83179 314.137 7.64567 313.908Q7.45955 313.68 7.28485 313.443Q7.11016 313.206 6.94732 312.96Q6.78447 312.715 6.63386 312.462Q6.48326 312.209 6.34526 311.948Q6.20725 311.688 6.08219 311.421Q5.95712 311.155 5.84529 310.882Q5.73346 310.61 5.63513 310.332Q5.5368 310.054 5.45222 309.772Q5.36764 309.49 5.297 309.204Q5.22637 308.918 5.16985 308.629Q5.11333 308.34 5.07106 308.048Q5.02879 307.757 5.00088 307.464Q4.97297 307.171 4.95948 306.876Q4.94599 306.582 4.94696 306.287Q4.94792 305.993 4.96334 305.699Q4.97875 305.405 5.00858 305.112Q5.03842 304.819 5.08259 304.527Q5.12676 304.236 5.18518 303.947Q5.24359 303.659 5.31609 303.373Q5.3886 303.088 5.47503 302.806Q5.56146 302.524 5.6616 302.247Q5.76174 301.97 5.87535 301.699Q5.98897 301.427 6.11578 301.161Q6.24259 300.895 6.38229 300.636Q6.522 300.377 6.67426 300.124Q6.82652 299.872 6.99097 299.628Q7.15542 299.383 7.33166 299.147Q7.5079 298.911 7.69551 298.684Q7.88312 298.457 8.08165 298.24Q8.28018 298.022 8.48914 297.814Q8.69811 297.607 8.91701 297.41L184.772 139.069Q184.996 138.868 185.228 138.679Q185.461 138.49 185.703 138.312Q185.945 138.134 186.196 137.969Q186.447 137.804 186.705 137.651Q186.964 137.499 187.229 137.359Q187.495 137.22 187.768 137.094Q188.04 136.968 188.319 136.856Q188.597 136.744 188.881 136.646Q189.165 136.548 189.453 136.464Q189.741 136.38 190.033 136.311Q190.325 136.242 190.621 136.187Q190.916 136.133 191.213 136.093Q191.511 136.053 191.81 136.028Q192.109 136.004 192.409 135.994Q192.709 135.984 193.009 135.989Q193.31 135.994 193.609 136.015Q193.909 136.035 194.207 136.07Q194.505 136.105 194.801 136.155Q195.097 136.205 195.39 136.27Q195.683 136.335 195.973 136.414Q196.262 136.493 196.547 136.587Q196.832 136.681 197.113 136.789Q197.393 136.896 197.667 137.018Q197.941 137.14 198.209 137.275Q198.477 137.41 198.738 137.559Q198.999 137.708 199.252 137.869Q199.505 138.03 199.75 138.204Q199.995 138.378 200.231 138.564Q200.466 138.75 200.692 138.947Q200.919 139.145 201.135 139.353Q201.351 139.562 201.556 139.781Q201.761 140 201.955 140.229L223.938 166.168Q224.229 166.511 224.494 166.875Q224.758 167.239 224.994 167.622Q225.231 168.005 225.438 168.405Q225.645 168.804 225.821 169.218Q225.998 169.632 226.143 170.058Q226.288 170.484 226.401 170.92Q226.514 171.355 226.593 171.798Q226.673 172.241 226.72 172.689Q226.766 173.136 226.779 173.586Q226.791 174.036 226.77 174.485Q226.749 174.935 226.695 175.382Q226.64 175.828 226.552 176.27Q226.464 176.711 226.344 177.144Q226.223 177.578 226.07 178.001Q225.917 178.424 225.733 178.835Q225.549 179.246 225.335 179.641L207.376 212.788L55.7564 349.423Q55.5376 349.62 55.3093 349.806Q55.081 349.993 54.8438 350.167Q54.6067 350.342 54.3612 350.505Q54.1157 350.668 53.8626 350.819Q53.6094 350.97 53.3492 351.108Q53.0889 351.246 52.8222 351.371Q52.5555 351.496 52.283 351.608Q52.0104 351.72 51.7327 351.819Q51.455 351.917 51.1728 352.002Q50.8906 352.086 50.6046 352.157Q50.3185 352.228 50.0294 352.285Q49.7403 352.341 49.4487 352.384Q49.1571 352.426 48.8638 352.454Q48.5705 352.482 48.2762 352.495Q47.9818 352.509 47.6872 352.508Q47.3926 352.507 47.0983 352.492Q46.8041 352.477 46.511 352.447Q46.2178 352.417 45.9265 352.373Q45.6352 352.329 45.3464 352.27Q45.0576 352.212 44.772 352.139Q44.4864 352.067 44.2048 351.981Q43.9231 351.894 43.646 351.794Q43.3689 351.694 43.097 351.58Q42.8252 351.467 42.5592 351.34Q42.2933 351.213 42.0339 351.073Q41.7744 350.934 41.5222 350.781Q41.27 350.629 41.0255 350.465Q40.7811 350.3 40.545 350.124Q40.3089 349.948 40.0817 349.76Q39.8546 349.572 39.6369 349.374Q39.4193 349.175 39.2116 348.966Q39.0039 348.757 38.8068 348.538Z" id="Rectangle-3" fill="current" fill-rule="evenodd" stroke="current" />
</svg>