<?xml version="1.0" encoding="utf-8"?>
<svg width="380.32812px" height="304.19995px" viewBox="0 0 380.32812 304.19995" version="1.1" xmlns:xlink="http://www.w3.org/1999/xlink" xmlns="http://www.w3.org/2000/svg">
  <g id="Group" transform="translate(0 1.5258789E-05)">
    <path d="M13.7157 54.7819L63.6269 105.78Q63.898 106.057 64.141 106.358Q64.3841 106.66 64.5968 106.984Q64.8095 107.308 64.9899 107.651Q65.1703 107.994 65.3167 108.353Q65.463 108.712 65.5741 109.083Q65.6851 109.455 65.7597 109.835Q65.8342 110.215 65.8717 110.601Q65.9092 110.987 65.9092 111.375L65.9089 296.201Q65.9089 296.397 65.8993 296.593Q65.8896 296.79 65.8704 296.985Q65.8512 297.18 65.8223 297.375Q65.7935 297.569 65.7552 297.761Q65.7169 297.954 65.6692 298.145Q65.6215 298.335 65.5645 298.523Q65.5075 298.711 65.4413 298.896Q65.3752 299.081 65.3 299.262Q65.2249 299.443 65.1409 299.621Q65.057 299.798 64.9644 299.972Q64.8718 300.145 64.7709 300.313Q64.6699 300.482 64.5608 300.645Q64.4517 300.808 64.3348 300.966Q64.2178 301.124 64.0932 301.275Q63.9687 301.427 63.8368 301.573Q63.7049 301.718 63.5661 301.857Q63.4272 301.996 63.2817 302.128Q63.1362 302.26 62.9844 302.384Q62.8326 302.509 62.6749 302.626Q62.5172 302.743 62.3539 302.852Q62.1907 302.961 62.0222 303.062Q61.8538 303.163 61.6806 303.255Q61.5074 303.348 61.3299 303.432Q61.1524 303.516 60.971 303.591Q60.7896 303.666 60.6047 303.732Q60.4198 303.799 60.2319 303.856Q60.044 303.913 59.8535 303.96Q59.663 304.008 59.4704 304.046Q59.2779 304.085 59.0836 304.113Q58.8894 304.142 58.694 304.161Q58.4985 304.181 58.3024 304.19Q58.1063 304.2 57.9099 304.2L7.999 304.2Q7.80264 304.2 7.60651 304.19Q7.41038 304.181 7.21496 304.161Q7.01954 304.142 6.8253 304.113Q6.63106 304.085 6.43847 304.046Q6.24588 304.008 6.0554 303.96Q5.86492 303.912 5.67701 303.855Q5.4891 303.798 5.30422 303.732Q5.11933 303.666 4.93791 303.591Q4.7565 303.516 4.57899 303.432Q4.40147 303.348 4.2283 303.255Q4.05512 303.163 3.88669 303.062Q3.71826 302.961 3.55499 302.852Q3.39172 302.743 3.234 302.626Q3.07628 302.509 2.92449 302.384Q2.7727 302.26 2.6272 302.128Q2.4817 301.996 2.34285 301.857Q2.204 301.718 2.07213 301.573Q1.94026 301.427 1.81569 301.275Q1.69112 301.124 1.57414 300.966Q1.45717 300.808 1.34807 300.645Q1.23898 300.482 1.13803 300.313Q1.03708 300.145 0.944512 299.972Q0.851946 299.798 0.76799 299.621Q0.684033 299.443 0.608887 299.262Q0.533742 299.081 0.467589 298.896Q0.401436 298.711 0.344434 298.523Q0.287433 298.335 0.23972 298.145Q0.192007 297.954 0.153699 297.761Q0.11539 297.569 0.0865771 297.375Q0.0577644 297.18 0.0385174 296.985Q0.0192703 296.79 0.00963514 296.593Q0 296.397 0 296.201L0 60.3768Q0 60.0808 0.0218721 59.7857Q0.0437442 59.4905 0.0873687 59.1978Q0.130993 58.905 0.196132 58.6163Q0.26127 58.3276 0.347566 58.0445Q0.433863 57.7614 0.540844 57.4854Q0.647826 57.2095 0.774909 56.9422Q0.901991 56.6749 1.04848 56.4177Q1.19497 56.1605 1.36006 55.9149Q1.52515 55.6693 1.70795 55.4365Q1.89074 55.2037 2.09024 54.9851Q2.28974 54.7665 2.50484 54.5632Q2.71995 54.3599 2.9495 54.173Q3.17904 53.9862 3.42176 53.8169Q3.66448 53.6475 3.91906 53.4965Q4.17363 53.3456 4.43867 53.2138Q4.7037 53.0821 4.97774 52.9703Q5.25179 52.8585 5.53335 52.7673Q5.8149 52.6761 6.10243 52.6059Q6.38996 52.5357 6.68189 52.487Q6.97382 52.4382 7.26855 52.4112Q7.56328 52.3842 7.8592 52.379Q8.15513 52.3738 8.45062 52.3905Q8.74612 52.4073 9.03957 52.4458Q9.33302 52.4843 9.62283 52.5443Q9.91263 52.6044 10.1972 52.6858Q10.4818 52.7671 10.7596 52.8692Q11.0373 52.9714 11.3068 53.0938Q11.5763 53.2162 11.836 53.3581Q12.0957 53.5001 12.3442 53.6609Q12.5927 53.8217 12.8286 54.0004Q13.0645 54.1791 13.2866 54.3747Q13.5087 54.5703 13.7157 54.7819L13.7157 54.7819Z" id="Rectangle-2" fill="#121212" fill-rule="evenodd" stroke="none" />
    <path d="M227.793 58.0416L293.564 42.4935Q293.783 42.4417 294.005 42.4022Q294.227 42.3628 294.451 42.336Q294.675 42.3091 294.9 42.2949Q295.125 42.2807 295.35 42.2791Q295.575 42.2776 295.801 42.2888Q296.026 42.2999 296.25 42.3238Q296.474 42.3476 296.697 42.384Q296.919 42.4204 297.139 42.4693Q297.359 42.5182 297.576 42.5794Q297.793 42.6406 298.006 42.7139Q298.219 42.7872 298.428 42.8724Q298.636 42.9576 298.84 43.0544Q299.044 43.1512 299.241 43.2593Q299.439 43.3675 299.63 43.4866Q299.822 43.6056 300.006 43.7353Q300.191 43.865 300.367 44.0048Q300.544 44.1447 300.713 44.2943Q300.881 44.4439 301.041 44.6027Q301.201 44.7615 301.352 44.9291Q301.503 45.0967 301.644 45.2725Q301.785 45.4484 301.916 45.6318Q302.047 45.8153 302.167 46.0059Q302.287 46.1964 302.397 46.3935Q302.506 46.5905 302.604 46.7934Q302.703 46.9963 302.789 47.2044Q302.876 47.4125 302.951 47.6251Q303.025 47.8377 303.088 48.0543Q303.151 48.2708 303.201 48.4905Q303.251 48.7102 303.289 48.9324Q303.327 49.1545 303.353 49.3785Q303.378 49.6025 303.391 49.8275Q303.403 50.0526 303.403 50.278L303.403 105.963L303.403 295.601Q303.403 295.797 303.394 295.993Q303.384 296.19 303.365 296.385Q303.345 296.58 303.317 296.775Q303.288 296.969 303.25 297.161Q303.211 297.354 303.164 297.545Q303.116 297.735 303.059 297.923Q303.002 298.111 302.936 298.296Q302.87 298.481 302.794 298.662Q302.719 298.843 302.635 299.021Q302.551 299.198 302.459 299.372Q302.366 299.545 302.265 299.713Q302.164 299.882 302.055 300.045Q301.946 300.208 301.829 300.366Q301.712 300.524 301.588 300.675Q301.463 300.827 301.331 300.973Q301.199 301.118 301.06 301.257Q300.922 301.396 300.776 301.528Q300.631 301.66 300.479 301.784Q300.327 301.909 300.169 302.026Q300.012 302.143 299.848 302.252Q299.685 302.361 299.517 302.462Q299.348 302.563 299.175 302.655Q299.002 302.748 298.824 302.832Q298.647 302.916 298.465 302.991Q298.284 303.066 298.099 303.132Q297.914 303.198 297.726 303.255Q297.538 303.312 297.348 303.36Q297.157 303.408 296.965 303.446Q296.772 303.485 296.578 303.513Q296.384 303.542 296.188 303.561Q295.993 303.581 295.797 303.59Q295.601 303.6 295.404 303.6L244.977 303.6Q244.789 303.6 244.601 303.591Q244.413 303.582 244.226 303.565Q244.039 303.547 243.853 303.52Q243.667 303.494 243.482 303.459Q243.297 303.424 243.114 303.38Q242.932 303.336 242.751 303.284Q242.57 303.232 242.392 303.171Q242.214 303.11 242.04 303.041Q241.865 302.972 241.693 302.895Q241.522 302.818 241.354 302.732Q241.187 302.647 241.023 302.554Q240.86 302.461 240.701 302.361Q240.542 302.26 240.388 302.152Q240.234 302.045 240.085 301.93Q239.936 301.815 239.793 301.693Q239.65 301.571 239.513 301.442Q239.375 301.314 239.244 301.179Q239.113 301.044 238.988 300.904Q238.864 300.763 238.746 300.616Q238.628 300.47 238.517 300.318Q238.406 300.166 238.303 300.009Q238.199 299.853 238.103 299.691Q238.007 299.529 237.918 299.363Q237.83 299.197 237.749 299.028Q237.669 298.858 237.596 298.684Q237.524 298.511 237.459 298.334Q237.395 298.157 237.339 297.978Q237.283 297.798 237.236 297.616Q237.189 297.434 237.15 297.25Q237.111 297.066 237.081 296.881Q237.051 296.695 237.03 296.508Q237.008 296.322 236.996 296.134L221.652 66.359Q221.64 66.1837 221.636 66.0081Q221.632 65.8325 221.636 65.6568Q221.64 65.4812 221.651 65.3059Q221.662 65.1306 221.681 64.956Q221.701 64.7813 221.727 64.6077Q221.754 64.4341 221.788 64.2618Q221.823 64.0895 221.865 63.9189Q221.907 63.7483 221.956 63.5797Q222.005 63.4111 222.062 63.2448Q222.119 63.0785 222.183 62.9149Q222.247 62.7513 222.318 62.5906Q222.389 62.43 222.467 62.2726Q222.545 62.1152 222.63 61.9614Q222.714 61.8076 222.806 61.6576Q222.898 61.5077 222.996 61.3619Q223.094 61.2161 223.198 61.0748Q223.302 60.9335 223.413 60.7969Q223.523 60.6603 223.64 60.5287Q223.756 60.397 223.878 60.2706Q224 60.1442 224.127 60.0233Q224.255 59.9024 224.387 59.7872Q224.52 59.672 224.658 59.5627Q224.795 59.4535 224.937 59.3503Q225.08 59.2472 225.226 59.1504Q225.373 59.0536 225.524 58.9634Q225.674 58.8731 225.829 58.7896Q225.983 58.706 226.141 58.6293Q226.299 58.5527 226.461 58.483Q226.622 58.4133 226.786 58.3508Q226.95 58.2883 227.117 58.233Q227.284 58.1778 227.453 58.1299Q227.622 58.082 227.793 58.0416Z" id="Rectangle-4" fill="#121212" fill-rule="evenodd" stroke="none" />
    <path d="M262.243 61.1306L262.245 61.1318Q262.838 61.5371 263.411 61.9709Q263.984 62.4047 264.535 62.8659Q265.085 63.327 265.613 63.8144Q266.141 64.3019 266.645 64.8144Q267.148 65.327 267.626 65.8634Q268.104 66.3999 268.555 66.959Q269.006 67.518 269.43 68.0984Q269.853 68.6788 270.248 69.2792Q270.643 69.8795 271.008 70.4983Q271.373 71.1171 271.707 71.753Q272.042 72.3889 272.345 73.0403Q272.648 73.6917 272.919 74.3571Q273.19 75.0224 273.428 75.7002Q273.667 76.378 273.872 77.0666Q274.077 77.7552 274.248 78.4529Q274.419 79.1507 274.556 79.856Q274.693 80.5612 274.796 81.2723Q274.898 81.9834 274.966 82.6987Q275.034 83.4139 275.067 84.1317Q275.1 84.8494 275.098 85.5678Q275.096 86.2863 275.059 87.0038Q275.022 87.7213 274.95 88.4362Q274.878 89.151 274.771 89.8615Q274.665 90.572 274.524 91.2765Q274.382 91.981 274.207 92.6777Q274.032 93.3745 273.823 94.0619Q273.614 94.7493 273.372 95.4257Q273.13 96.1021 272.855 96.766Q272.58 97.4298 272.273 98.0795Q271.966 98.7291 271.628 99.3631Q271.29 99.997 270.922 100.614Q270.553 101.23 270.155 101.829L193.074 217.614Q192.679 218.207 192.256 218.779Q191.832 219.352 191.381 219.903Q190.93 220.454 190.452 220.982Q189.974 221.509 189.47 222.013Q188.967 222.517 188.439 222.995Q187.911 223.473 187.36 223.925Q186.81 224.376 186.237 224.8Q185.665 225.223 185.072 225.618Q184.48 226.013 183.868 226.378Q183.257 226.743 182.628 227.078Q181.999 227.412 181.355 227.715Q180.71 228.018 180.051 228.288Q179.393 228.559 178.721 228.797Q178.05 229.035 177.368 229.239Q176.686 229.443 175.994 229.613Q175.303 229.784 174.604 229.92Q173.904 230.055 173.2 230.157Q172.495 230.258 171.785 230.324Q171.076 230.39 170.365 230.421Q169.653 230.452 168.941 230.448Q168.229 230.444 167.518 230.404Q166.807 230.365 166.099 230.29Q165.391 230.216 164.687 230.106Q163.983 229.997 163.286 229.853Q162.588 229.709 161.899 229.53Q161.209 229.352 160.53 229.14Q159.85 228.927 159.181 228.682Q158.513 228.436 157.858 228.158Q157.202 227.879 156.561 227.569Q155.92 227.258 155.295 226.916Q154.671 226.575 154.064 226.202Q153.456 225.83 152.869 225.428L152.867 225.427Q152.274 225.022 151.701 224.588Q151.128 224.154 150.577 223.693Q150.026 223.232 149.499 222.745Q148.971 222.257 148.467 221.745Q147.964 221.232 147.486 220.696Q147.008 220.159 146.557 219.6Q146.105 219.041 145.682 218.461Q145.258 217.88 144.864 217.28Q144.469 216.68 144.104 216.061Q143.739 215.442 143.405 214.806Q143.07 214.17 142.767 213.519Q142.464 212.867 142.193 212.202Q141.922 211.537 141.684 210.859Q141.445 210.181 141.24 209.492Q141.035 208.804 140.864 208.106Q140.693 207.408 140.556 206.703Q140.418 205.998 140.316 205.287Q140.213 204.576 140.145 203.86Q140.078 203.145 140.045 202.427Q140.012 201.71 140.014 200.991Q140.016 200.273 140.053 199.555Q140.09 198.838 140.162 198.123Q140.234 197.408 140.34 196.698Q140.447 195.987 140.588 195.283Q140.729 194.578 140.905 193.881Q141.08 193.185 141.289 192.497Q141.498 191.81 141.74 191.133Q141.982 190.457 142.257 189.793Q142.532 189.129 142.839 188.48Q143.145 187.83 143.483 187.196Q143.822 186.562 144.19 185.945Q144.559 185.329 144.957 184.731L222.038 68.9452Q222.433 68.3524 222.856 67.7798Q223.28 67.2073 223.731 66.6563Q224.182 66.1054 224.66 65.5775Q225.138 65.0495 225.642 64.5459Q226.145 64.0422 226.673 63.5641Q227.201 63.0859 227.751 62.6345Q228.302 62.183 228.874 61.7593Q229.447 61.3356 230.04 60.9408Q230.632 60.5459 231.244 60.1809Q231.855 59.8158 232.484 59.4814Q233.113 59.147 233.757 58.8441Q234.402 58.5412 235.06 58.2706Q235.719 57.9999 236.39 57.7622Q237.062 57.5244 237.744 57.3202Q238.426 57.1159 239.118 56.9457Q239.809 56.7754 240.508 56.6395Q241.207 56.5036 241.912 56.4025Q242.617 56.3013 243.326 56.2352Q244.035 56.169 244.747 56.138Q245.458 56.107 246.17 56.1112Q246.883 56.1154 247.594 56.1548Q248.305 56.1942 249.013 56.2687Q249.721 56.3432 250.425 56.4527Q251.129 56.5621 251.826 56.7062Q252.523 56.8503 253.213 57.0288Q253.902 57.2072 254.582 57.4195Q255.262 57.6317 255.93 57.8774Q256.599 58.123 257.254 58.4014Q257.91 58.6798 258.551 58.9903Q259.191 59.3008 259.816 59.6425Q260.441 59.9843 261.048 60.3566Q261.655 60.7288 262.243 61.1306Z" id="Rectangle-5" fill="#121212" fill-rule="evenodd" stroke="none" />
    <path d="M24.0878 56.6086L24.0862 56.6097Q23.493 57.0151 22.9203 57.4489Q22.3475 57.8827 21.7966 58.3438Q21.2457 58.805 20.7178 59.2924Q20.19 59.7798 19.6865 60.2924Q19.183 60.8049 18.7051 61.3414Q18.2272 61.8778 17.776 62.4369Q17.3247 62.996 16.9013 63.5764Q16.4778 64.1568 16.0831 64.7571Q15.6883 65.3575 15.3233 65.9763Q14.9583 66.5951 14.6238 67.231Q14.2894 67.8668 13.9863 68.5182Q13.6832 69.1696 13.4122 69.835Q13.1411 70.5004 12.9028 71.1782Q12.6645 71.856 12.4595 72.5446Q12.2545 73.2332 12.0832 73.9309Q11.912 74.6287 11.7749 75.3339Q11.6378 76.0392 11.5352 76.7503Q11.4326 77.4614 11.3648 78.1767Q11.297 78.8919 11.264 79.6096Q11.2311 80.3273 11.2332 81.0458Q11.2352 81.7643 11.2722 82.4818Q11.3093 83.1993 11.3812 83.9141Q11.4531 84.629 11.5598 85.3395Q11.6664 86.05 11.8075 86.7545Q11.9486 87.4589 12.1239 88.1557Q12.2991 88.8525 12.5081 89.5399Q12.717 90.2273 12.9592 90.9037Q13.2014 91.5801 13.4762 92.244Q13.751 92.9078 14.0578 93.5574Q14.3647 94.2071 14.7028 94.841Q15.0408 95.475 15.4094 96.0917Q15.7779 96.7084 16.1761 97.3065L93.2573 213.092Q93.652 213.685 94.0754 214.257Q94.4989 214.83 94.9502 215.381Q95.4014 215.932 95.8794 216.46Q96.3574 216.988 96.8608 217.491Q97.3643 217.995 97.8921 218.473Q98.4199 218.951 98.9706 219.403Q99.5214 219.854 100.094 220.278Q100.666 220.701 101.259 221.096Q101.852 221.491 102.463 221.856Q103.074 222.221 103.703 222.556Q104.332 222.89 104.977 223.193Q105.621 223.496 106.28 223.766Q106.938 224.037 107.61 224.275Q108.281 224.513 108.963 224.717Q109.646 224.921 110.337 225.091Q111.029 225.262 111.728 225.398Q112.427 225.533 113.132 225.635Q113.837 225.736 114.546 225.802Q115.255 225.868 115.966 225.899Q116.678 225.93 117.39 225.926Q118.102 225.922 118.813 225.882Q119.524 225.843 120.232 225.768Q120.941 225.694 121.644 225.584Q122.348 225.475 123.045 225.331Q123.743 225.187 124.432 225.008Q125.122 224.83 125.801 224.618Q126.481 224.405 127.15 224.16Q127.818 223.914 128.474 223.636Q129.129 223.357 129.77 223.047Q130.411 222.736 131.036 222.394Q131.66 222.053 132.268 221.68Q132.875 221.308 133.463 220.906L133.464 220.905Q134.057 220.5 134.63 220.066Q135.203 219.632 135.754 219.171Q136.305 218.71 136.833 218.223Q137.36 217.735 137.864 217.223Q138.367 216.71 138.845 216.174Q139.323 215.637 139.774 215.078Q140.226 214.519 140.649 213.939Q141.073 213.358 141.467 212.758Q141.862 212.158 142.227 211.539Q142.592 210.92 142.927 210.284Q143.261 209.648 143.564 208.997Q143.867 208.345 144.138 207.68Q144.409 207.015 144.648 206.337Q144.886 205.659 145.091 204.97Q145.296 204.282 145.467 203.584Q145.638 202.886 145.776 202.181Q145.913 201.476 146.015 200.765Q146.118 200.054 146.186 199.338Q146.253 198.623 146.286 197.905Q146.319 197.188 146.317 196.469Q146.315 195.751 146.278 195.033Q146.241 194.316 146.169 193.601Q146.097 192.886 145.991 192.176Q145.884 191.465 145.743 190.761Q145.602 190.056 145.427 189.359Q145.251 188.663 145.042 187.975Q144.833 187.288 144.591 186.611Q144.349 185.935 144.074 185.271Q143.799 184.607 143.493 183.958Q143.186 183.308 142.848 182.674Q142.51 182.04 142.141 181.423Q141.772 180.807 141.374 180.208L64.2931 64.4232Q63.8984 63.8304 63.475 63.2578Q63.0515 62.6852 62.6002 62.1343Q62.149 61.5834 61.671 61.0554Q61.193 60.5275 60.6896 60.0238Q60.1861 59.5202 59.6583 59.042Q59.1306 58.5639 58.5798 58.1124Q58.029 57.661 57.4566 57.2373Q56.8842 56.8136 56.2915 56.4187Q55.6989 56.0239 55.0874 55.6588Q54.476 55.2937 53.8472 54.9594Q53.2184 54.625 52.5739 54.3221Q51.9294 54.0192 51.2707 53.7485Q50.6119 53.4779 49.9406 53.2402Q49.2693 53.0024 48.5871 52.7981Q47.9049 52.5939 47.2134 52.4236Q46.5219 52.2533 45.8228 52.1175Q45.1238 51.9816 44.4188 51.8804Q43.7139 51.7793 43.0048 51.7131Q42.2957 51.647 41.5843 51.616Q40.8728 51.5849 40.1607 51.5891Q39.4485 51.5933 38.7375 51.6328Q38.0264 51.6722 37.3182 51.7467Q36.6099 51.8212 35.9062 51.9306Q35.2025 52.0401 34.5051 52.1842Q33.8077 52.3283 33.1183 52.5067Q32.4288 52.6851 31.749 52.8974Q31.0693 53.1097 30.4008 53.3554Q29.7324 53.601 29.0769 53.8794Q28.4214 54.1578 27.7805 54.4683Q27.1396 54.7787 26.5148 55.1205Q25.89 55.4623 25.2829 55.8345Q24.6758 56.2068 24.0878 56.6086Z" id="Rectangle-9" fill="#121212" fill-rule="evenodd" stroke="none" />
    <path d="M85.1215 142.6C91.3861 142.6 115.429 142.6 115.429 142.6C115.429 142.6 131.411 171.6 145.7 171.6C159.989 171.6 174.317 142.6 174.317 142.6L197.76 142.6Q198.235 142.6 198.709 142.629Q199.183 142.659 199.655 142.718Q200.126 142.776 200.593 142.864Q201.06 142.952 201.52 143.069Q201.981 143.185 202.433 143.33Q202.886 143.475 203.328 143.648Q203.771 143.82 204.202 144.02Q204.633 144.22 205.051 144.446Q205.468 144.672 205.871 144.923Q206.274 145.175 206.661 145.451Q207.048 145.727 207.416 146.026Q207.785 146.326 208.135 146.647Q208.484 146.969 208.813 147.312Q209.142 147.654 209.449 148.017Q209.756 148.379 210.04 148.76Q210.324 149.141 210.584 149.538Q210.844 149.936 211.079 150.349Q211.314 150.762 211.522 151.189Q211.731 151.615 211.913 152.054Q212.095 152.493 212.249 152.942Q212.404 153.392 212.53 153.85Q212.656 154.308 212.754 154.772Q212.851 155.237 212.92 155.707Q212.988 156.177 213.028 156.651Q213.067 157.124 213.077 157.599Q213.087 158.074 213.068 158.549Q213.048 159.023 212.999 159.496Q212.95 159.968 212.872 160.437Q212.794 160.906 212.687 161.368Q212.58 161.831 212.445 162.287Q212.31 162.742 212.146 163.188Q211.983 163.634 211.792 164.069L186.659 221.424Q186.536 221.705 186.402 221.982Q186.269 222.259 186.125 222.532Q185.982 222.804 185.829 223.07Q185.676 223.337 185.513 223.598Q185.35 223.859 185.178 224.114Q185.006 224.369 184.825 224.617Q184.643 224.866 184.453 225.107Q184.263 225.349 184.064 225.584Q183.866 225.819 183.659 226.046Q183.452 226.273 183.236 226.493Q183.021 226.713 182.798 226.925Q182.575 227.137 182.345 227.34Q182.114 227.544 181.877 227.739Q181.639 227.934 181.394 228.121Q181.15 228.307 180.899 228.485Q180.647 228.662 180.39 228.83Q180.132 228.999 179.869 229.157Q179.606 229.316 179.337 229.465Q179.068 229.615 178.794 229.754Q178.52 229.893 178.241 230.023Q177.962 230.152 177.678 230.271Q177.394 230.391 177.107 230.499Q176.819 230.608 176.528 230.707Q176.236 230.805 175.942 230.893Q175.647 230.981 175.349 231.058Q175.051 231.135 174.751 231.201Q174.451 231.267 174.148 231.323Q173.846 231.378 173.541 231.422Q173.237 231.467 172.931 231.5Q172.625 231.533 172.319 231.555Q172.012 231.578 171.705 231.589Q171.397 231.6 171.09 231.6L113.549 231.6Q112.968 231.6 112.388 231.56Q111.808 231.521 111.233 231.441Q110.657 231.362 110.088 231.244Q109.519 231.125 108.959 230.968Q108.399 230.811 107.852 230.617Q107.304 230.422 106.771 230.19Q106.238 229.958 105.722 229.691Q105.206 229.423 104.71 229.121Q104.213 228.818 103.738 228.483Q103.264 228.147 102.813 227.78Q102.363 227.413 101.938 227.016Q101.513 226.619 101.117 226.194Q100.721 225.769 100.354 225.318Q99.9878 224.867 99.653 224.391Q99.3182 223.916 99.0167 223.419Q98.7152 222.922 98.4483 222.406L70.0203 167.404Q69.7705 166.921 69.552 166.422Q69.3336 165.924 69.1476 165.413Q68.9615 164.901 68.8085 164.379Q68.6555 163.857 68.5361 163.326Q68.4168 162.795 68.3317 162.258Q68.2466 161.721 68.1961 161.179Q68.1455 160.637 68.1297 160.093Q68.1139 159.549 68.1329 159.006Q68.1519 158.462 68.2056 157.92Q68.2593 157.379 68.3476 156.842Q68.4358 156.305 68.5582 155.775Q68.6806 155.245 68.8367 154.723Q68.9927 154.202 69.1818 153.692Q69.3709 153.182 69.5922 152.685Q69.8135 152.188 70.0662 151.706Q70.3188 151.224 70.6018 150.759Q70.8847 150.294 71.1968 149.849Q71.5089 149.403 71.8488 148.978Q72.1888 148.553 72.5552 148.151Q72.9217 147.749 73.3131 147.371Q73.7045 146.993 74.1192 146.641Q74.534 146.289 74.9705 145.964Q75.4069 145.639 75.8632 145.342Q76.3196 145.046 76.7939 144.779Q77.2683 144.513 77.7587 144.277Q78.2491 144.042 78.7536 143.838Q79.2581 143.634 79.7746 143.463Q80.2911 143.292 80.8175 143.154Q81.3438 143.016 81.8779 142.912Q82.4121 142.808 82.9517 142.739Q83.4914 142.67 84.0344 142.635Q84.5774 142.6 85.1215 142.6L85.1215 142.6Z" id="Rectangle-8" fill="#121212" fill-rule="evenodd" stroke="none" />
    <path d="M319.886 65.9895L314.741 90.5135L210.678 68.1023L216.847 38.6932L193.5 22.0841L217.891 -1.52588e-05L365.538 39.8566L380.328 65.9895L338.862 65.9895L338.862 117.73L333.673 117.73L333.673 65.9895L319.886 65.9895Z" id="Rectangle-6-Union" fill="#FC4850" fill-rule="evenodd" stroke="none" />
  </g>
</svg>