<?xml version="1.0" encoding="utf-8"?>
<svg width="371.44238px" height="292.04053px" viewBox="0 0 371.44238 292.04053" version="1.1" xmlns:xlink="http://www.w3.org/1999/xlink" xmlns="http://www.w3.org/2000/svg">
  <g id="Group-3">
    <g id="Group-2" transform="translate(0 6.340454)">
      <path d="M59.6785 20.9794C55.7927 10.16 8.86996 9.11518 8.17816 20.9793C7.48637 32.8435 -1.32947 263.706 0.171727 280.479C1.35742 293.726 41.7867 278.418 58.7281 271.398C62.8093 269.706 66.081 264.667 66.081 260.25L66.081 144.323C66.081 144.323 113.722 221.724 158.172 218.179C186.193 215.945 205.019 198.228 217.672 183.019L217.672 264.68Q217.672 265.196 217.697 265.711Q217.722 266.226 217.773 266.739Q217.824 267.252 217.899 267.762Q217.975 268.271 218.075 268.777Q218.176 269.283 218.301 269.783Q218.426 270.283 218.576 270.776Q218.726 271.269 218.899 271.755Q219.073 272.24 219.27 272.716Q219.468 273.193 219.688 273.659Q219.908 274.125 220.151 274.579Q220.394 275.034 220.659 275.476Q220.924 275.918 221.211 276.347Q221.497 276.775 221.804 277.189Q222.111 277.604 222.438 278.002Q222.765 278.4 223.112 278.782Q223.458 279.164 223.822 279.529Q224.187 279.893 224.569 280.24Q224.951 280.586 225.349 280.913Q225.748 281.24 226.162 281.547Q226.576 281.854 227.004 282.14Q227.433 282.427 227.875 282.692Q228.317 282.957 228.772 283.2Q229.227 283.443 229.693 283.663Q230.159 283.884 230.635 284.081Q231.111 284.278 231.597 284.452Q232.082 284.626 232.575 284.775Q233.068 284.925 233.569 285.05Q234.069 285.175 234.574 285.276Q235.08 285.376 235.59 285.452Q236.1 285.528 236.613 285.578Q237.126 285.629 237.64 285.654Q238.155 285.679 238.671 285.679L269.473 285.679Q269.988 285.679 270.503 285.654Q271.018 285.629 271.531 285.578Q272.044 285.528 272.554 285.452Q273.064 285.376 273.569 285.276Q274.075 285.175 274.575 285.05Q275.075 284.925 275.568 284.775Q276.062 284.626 276.547 284.452Q277.032 284.278 277.508 284.081Q277.985 283.884 278.451 283.663Q278.917 283.443 279.371 283.2Q279.826 282.957 280.268 282.692Q280.71 282.427 281.139 282.14Q281.568 281.854 281.982 281.547Q282.396 281.24 282.794 280.913Q283.193 280.586 283.575 280.24Q283.957 279.893 284.321 279.529Q284.686 279.164 285.032 278.782Q285.378 278.4 285.705 278.002Q286.032 277.604 286.339 277.189Q286.646 276.775 286.933 276.347Q287.219 275.918 287.484 275.476Q287.749 275.034 287.992 274.579Q288.235 274.125 288.455 273.659Q288.676 273.193 288.873 272.716Q289.07 272.24 289.244 271.755Q289.418 271.269 289.567 270.776Q289.717 270.283 289.842 269.783Q289.967 269.283 290.068 268.777Q290.169 268.271 290.244 267.762Q290.32 267.252 290.37 266.739Q290.421 266.226 290.446 265.711Q290.472 265.196 290.472 264.68L290.472 42.6784Q290.472 42.1629 290.446 41.648Q290.421 41.1331 290.37 40.6201Q290.32 40.1071 290.244 39.5972Q290.169 39.0873 290.068 38.5817Q289.967 38.0761 289.842 37.576Q289.717 37.076 289.567 36.5827Q289.418 36.0894 289.244 35.604Q289.07 35.1187 288.873 34.6424Q288.676 34.1662 288.455 33.7001Q288.235 33.2341 287.992 32.7795Q287.749 32.3249 287.484 31.8827Q287.219 31.4406 286.933 31.012Q286.646 30.5833 286.339 30.1693Q286.032 29.7552 285.705 29.3568Q285.378 28.9583 285.032 28.5763Q284.686 28.1944 284.321 27.8298Q283.957 27.4653 283.575 27.1192Q283.193 26.773 282.794 26.4459Q282.396 26.1189 281.982 25.8118Q281.568 25.5047 281.139 25.2183Q280.71 24.932 280.268 24.6669Q279.826 24.4019 279.371 24.1589Q278.917 23.9159 278.451 23.6955Q277.985 23.4751 277.508 23.2778Q277.032 23.0806 276.547 22.9069Q276.062 22.7332 275.568 22.5836Q275.075 22.434 274.575 22.3087Q274.075 22.1834 273.569 22.0829Q273.064 21.9823 272.554 21.9067Q272.044 21.831 271.531 21.7805Q271.018 21.73 270.503 21.7047Q269.988 21.6794 269.473 21.6794L238.671 21.6794Q238.155 21.6794 237.64 21.7047Q237.126 21.73 236.613 21.7805Q236.1 21.831 235.59 21.9067Q235.08 21.9823 234.574 22.0829Q234.069 22.1834 233.569 22.3087Q233.068 22.434 232.575 22.5836Q232.082 22.7332 231.597 22.9069Q231.111 23.0806 230.635 23.2778Q230.159 23.4751 229.693 23.6955Q229.227 23.9159 228.772 24.1589Q228.317 24.4019 227.875 24.6669Q227.433 24.932 227.004 25.2184Q226.576 25.5047 226.162 25.8118Q225.748 26.1189 225.349 26.4459Q224.951 26.773 224.569 27.1192Q224.187 27.4653 223.822 27.8298Q223.458 28.1944 223.112 28.5763Q222.765 28.9583 222.438 29.3568Q222.111 29.7552 221.804 30.1693Q221.497 30.5833 221.211 31.012Q220.924 31.4406 220.659 31.8827Q220.394 32.3249 220.151 32.7795Q219.908 33.2341 219.688 33.7001Q219.468 34.1662 219.27 34.6424Q219.073 35.1187 218.899 35.604Q218.726 36.0894 218.576 36.5827Q218.426 37.076 218.301 37.576Q218.176 38.0761 218.075 38.5817Q217.975 39.0873 217.899 39.5972Q217.824 40.1071 217.773 40.6201Q217.722 41.1331 217.697 41.648Q217.672 42.1629 217.672 42.6784L217.672 69.8839C209.545 93.7891 188.419 145.539 158.172 144.323C118.872 142.742 74.6785 51.7468 74.6785 51.7468C68.6325 39.5347 63.5643 31.7988 59.6785 20.9794Z" id="Rectangle-2-Union" fill="#121212" fill-rule="evenodd" stroke="none" />
      <path d="M8.44965 8.51083C9.14146 -3.35333 56.0643 -2.30855 59.9501 8.51086C63.8359 19.3303 68.9041 27.0662 74.9501 39.2783C74.9501 39.2783 119.144 130.274 158.444 131.854C197.744 133.435 217.272 66.4 217.272 66.4C219.743 69.1898 219.672 77.4109 219.672 77.4109L219.672 92.1298C219.672 92.1298 219.672 116.636 219.672 116.636C219.672 116.636 219.951 164.596 219.672 168.152C219.108 175.329 202.894 202.167 158.444 205.711C113.994 209.255 66.3526 131.854 66.3526 131.854L66.3525 247.781C66.3525 252.199 63.0809 257.238 58.9997 258.929C42.0583 265.949 1.62891 281.258 0.443212 268.01C-1.05799 251.238 7.75786 20.375 8.44965 8.51083Z" id="Rectangle-10" fill="#171717" fill-rule="evenodd" stroke="none" />
    </g>
    <path d="M172.036 23.5728C173.771 28.2036 192.952 39.2036 197.173 41.5799C195.89 51.0872 194.34 67.6269 198.226 72.4674C203.783 79.3886 293.581 94.0895 301.042 91.5154C305.349 90.0295 307.324 79.2766 308.223 70.4501C310.738 70.6425 315.44 70.9873 321.187 71.3379L321.187 125.28C321.187 125.28 325.329 142.066 326.71 125.28C327.633 114.057 327.321 87.8261 327.014 71.6729C344.742 72.6275 367.837 73.2557 370.846 70.2939C373.966 67.3127 364.283 50.9127 355.107 42.4851C345.931 34.0576 207.743 -2.21336 197.954 0.106467C188.165 2.42629 170.085 18.3662 172.036 23.5728Z" id="Rectangle-6-Union" fill="#FC4850" fill-rule="evenodd" stroke="none" />
  </g>
</svg>